<?xml version="1.0" encoding="UTF-8"?>
<svg width="17px" height="15px" viewBox="0 0 17 15" version="1.1" xmlns="http://www.w3.org/2000/svg" xmlns:xlink="http://www.w3.org/1999/xlink">
    <!-- Generator: Sketch 55.2 (78181) - https://sketchapp.com -->
    <title>Customer service</title>
    <desc>Created with Sketch.</desc>
    <g id="Symbols" stroke="none" stroke-width="1" fill="none" fill-rule="evenodd">
        <g id="Page/Top-bar-links" transform="translate(0.000000, -4.000000)" fill="#512B2B" fill-rule="nonzero">
            <g id="Top-bar-links">
                <g id="General/Customer-service" transform="translate(0.000000, 4.000000)">
                    <path d="M9.74082267,9.74206274 C7.87562169,11.5911844 5.06174089,11.8966915 2.87495353,10.6425046 C2.84279489,10.6585839 2.82671558,10.6746632 2.79455694,10.6746632 L0.848959359,11.1570428 C0.463055707,11.2374394 0.221865924,11.0123289 0.318341837,10.6264253 L0.800721402,8.6808277 C0.800721402,8.6808277 0.816800721,8.66474838 0.816800721,8.64866906 C-0.501703423,6.44580238 -0.228355003,3.55152499 1.66900462,1.67024469 C3.90402994,-0.564780632 7.50579736,-0.548701313 9.74082267,1.67024469 C11.975848,3.88919069 11.975848,7.50703742 9.74082267,9.74206274 Z M15.3685843,11.9931674 L15.8027259,13.6010993 C15.8831225,13.9709236 15.8027259,14.3085893 15.5776154,14.5336998 C15.3364256,14.7588102 14.9987599,14.8392068 14.6450149,14.7588102 L12.9888451,14.3568272 C12.1527205,14.7909689 11.2361993,15 10.3357575,15 C8.84038082,15 7.36108349,14.4211445 6.25161049,13.3116715 C5.91394479,12.9579265 5.54412046,12.4916263 5.28685136,12.025326 C5.43156523,12.025326 5.5762791,12.0414053 5.73707228,12.0414053 C6.0104207,12.0414053 6.28376912,12.0092467 6.55711755,11.9770881 C6.70183141,12.1539606 6.84654528,12.3147538 7.03949711,12.5077056 C8.51879444,13.9870029 10.818137,14.3085893 12.6351001,13.2634336 L12.8602105,13.134799 L13.1014003,13.2312749 L14.6289356,13.6010993 L14.2591113,12.1057226 C14.2430319,12.0896433 14.2430319,12.0896433 14.2430319,12.073564 L14.1626354,11.8323742 L14.2912699,11.623343 C15.4007429,9.77422138 15.1113152,7.42664083 13.5998592,5.91518486 C13.1496383,5.46496393 12.5547035,5.07906028 11.9919273,4.85394982 C11.9436894,4.41980821 11.8472134,4.00174592 11.7024996,3.59976295 C12.6994173,3.85703205 13.6480972,4.38764957 14.3877458,5.12729824 C16.2207882,6.96034058 16.6066918,9.74206274 15.3685843,11.9931674 Z" id="Customer-service"></path>
                </g>
            </g>
        </g>
    </g>
</svg>