<?xml version="1.0" encoding="UTF-8"?>
<svg width="17px" height="17px" viewBox="0 0 17 17" version="1.1" xmlns="http://www.w3.org/2000/svg" xmlns:xlink="http://www.w3.org/1999/xlink">
    <!-- Generator: Sketch 55.2 (78181) - https://sketchapp.com -->
    <title>Icon</title>
    <desc>Created with Sketch.</desc>
    <g id="Symbols" stroke="none" stroke-width="1" fill="none" fill-rule="evenodd">
        <g id="Menu" transform="translate(-32.000000, -204.000000)" fill="#512B2B" fill-rule="nonzero">
            <g id="Navigational/Refill/Brown">
                <g transform="translate(32.000000, 204.000000)">
                    <path d="M6.02083333,16.6458333 C5.04973118,16.6458333 4.25,15.7889785 4.25,14.875 L7.79166667,14.875 C7.79166667,15.8080197 6.99193548,16.6458333 6.02083333,16.6458333 Z M12.3958333,16.6458333 C11.4247312,16.6458333 10.625,15.7889785 10.625,14.875 L14.1666667,14.875 C14.1666667,15.8080197 13.3669355,16.6458333 12.3958333,16.6458333 Z M17,2.83333333 L16.2916667,9.20833333 L5.35947849,11.3863611 L5.60413411,12.75 L14.1666667,12.75 L14.1666667,14.1666667 L4.25,14.1666667 L2.125,2.125 L0,2.125 L0,0.708333333 L3.41084635,0.708333333 L3.77334635,2.83333333 L17,2.83333333 Z M11.3333333,7.08333333 L11.3333333,5.66666667 L9.91666667,5.59166667 L9.91666667,4.25 L8.5,4.25 L8.5,5.66666667 L7.11666667,5.66666667 L7.11666667,7.08333333 L8.5,7.08333333 L8.5,8.5 L9.91666667,8.5 L9.91666667,7.08333333 L11.3333333,7.08333333 Z" id="Refill"></path>
                </g>
            </g>
        </g>
    </g>
</svg>