<?xml version="1.0" encoding="UTF-8"?>
<svg width="14px" height="16px" viewBox="0 0 14 16" version="1.1" xmlns="http://www.w3.org/2000/svg" xmlns:xlink="http://www.w3.org/1999/xlink">
    <!-- Generator: Sketch 55.2 (78181) - https://sketchapp.com -->
    <title>Reminder</title>
    <desc>Created with Sketch.</desc>
    <g id="Symbols" stroke="none" stroke-width="1" fill="none" fill-rule="evenodd">
        <g id="Page/Top-bar-links" transform="translate(-173.000000, -4.000000)" fill="#512B2B" fill-rule="nonzero">
            <g id="Top-bar-links">
                <g id="General/Reminder/Brown" transform="translate(172.000000, 4.000000)">
                    <path d="M6,14 L10,14 C10,14.8939567 8.89395667,16 8,16 C7.10604333,16 6,14.8779932 6,14 Z M14.7844926,11.722919 C14.9122007,11.8665906 14.9920182,12.0421893 14.9920182,12.2656784 C14.9920182,12.6807298 14.672748,13 14.2576967,13 L8,13 L1.72633979,13 C1.327252,13 0.992018244,12.6807298 0.992018244,12.2656784 C0.992018244,12.0581528 1.0718358,11.8665906 1.1995439,11.7388826 C1.1995439,11.7388826 2.81185861,10.381984 2.81185861,8.08323831 L2.81984036,6.78449259 C2.81984036,4.34207526 4.20125428,2.54275941 6.5,2 L6.5,1.45724059 C6.5,0.802736602 7,0 8.00798176,0 C9.01596351,0 9.51596351,0.802736602 9.5,1.45724059 L9.5,2 C11.7987457,2.54275941 13.1801596,4.32611174 13.1801596,6.78449259 L13.1721779,8.0672748 C13.1721779,10.3660205 14.7844926,11.722919 14.7844926,11.722919 Z" id="Reminder"></path>
                </g>
            </g>
        </g>
    </g>
</svg>