<?xml version="1.0" encoding="UTF-8"?>
<svg width="15px" height="17px" viewBox="0 0 15 17" version="1.1" xmlns="http://www.w3.org/2000/svg" xmlns:xlink="http://www.w3.org/1999/xlink">
    <!-- Generator: Sketch 55.2 (78181) - https://sketchapp.com -->
    <title>Icon</title>
    <desc>Created with Sketch.</desc>
    <g id="Symbols" stroke="none" stroke-width="1" fill="none" fill-rule="evenodd">
        <g id="Menu" transform="translate(-33.000000, -251.000000)" fill="#512B2B" fill-rule="nonzero">
            <g id="Navigational/Documents/Brown">
                <g transform="translate(32.000000, 251.000000)">
                    <path d="M14.875,3.54166667 C15.5833333,4.25 15.5833333,4.60416667 15.5833333,4.95833333 L15.5833333,15.5833333 C15.5716807,16.3321429 14.9103352,17 14.1666667,17 L2.83333333,17 C2.07801218,17 1.41666667,16.3321429 1.41666667,15.5833333 L1.41666667,1.41666667 C1.41666667,0.667857143 2.07801218,0 2.83333333,0 L10.625,0 C10.835152,0 11.6875,0.354166667 12.0416667,0.708333333 L14.875,3.54166667 Z M4.25,3.54166667 L4.25,4.95833333 L10.625,4.95833333 L10.625,3.54166667 L4.25,3.54166667 Z M4.25,6.375 L4.25,7.79166667 L12.75,7.79166667 L12.75,6.375 L4.25,6.375 Z M4.25,9.20833333 L4.25,10.625 L12.75,10.625 L12.75,9.20833333 L4.25,9.20833333 Z M4.25,12.0416667 L4.25,13.4583333 L8.5,13.4583333 L8.5,12.0416667 L4.25,12.0416667 Z" id="Documents"></path>
                </g>
            </g>
        </g>
    </g>
</svg>