<svg id="Layer_1" data-name="Layer 1" xmlns="http://www.w3.org/2000/svg" viewBox="0 0 16 16"><defs><style>.cls-1{fill:#512b2b;}</style></defs><title>user</title><g id="Symbols"><g id="Top-bar-links"><path id="User" class="cls-1" d="M8,0a8,8,0,1,0,8,8A8,8,0,0,0,8,0ZM8,2.5a2.91,2.91,0,0,1,3,3,2.91,2.91,0,0,1-3,3,2.94,2.94,0,0,1-3-3A2.88,2.88,0,0,1,8,2.5Zm5,9.87a7.5,7.5,0,0,1-1.09,1l-.29.19-.05,0-.25.16-.05,0-.27.15,0,0-.3.14a0,0,0,0,0,0,0c-.22.09-.45.17-.69.25l-.08,0a2.27,2.27,0,0,1-.25.06l-.12,0-.24.05a.27.27,0,0,1-.12,0l-.23,0H8.78a1,1,0,0,1-.25,0,.22.22,0,0,0-.11,0H7.68a.22.22,0,0,1-.11,0l-.26,0H7.18l-.24,0-.12,0-.24-.05-.12,0-.25-.06s-.07,0-.08,0a5.13,5.13,0,0,1-.69-.25A3.26,3.26,0,0,1,5.12,14l0,0-.27-.14,0,0a2.4,2.4,0,0,0-.27-.16s0,0,0,0A6.55,6.55,0,0,1,2.83,12.1L3,11.74A4.18,4.18,0,0,1,6.27,9.42a1.83,1.83,0,0,0,3.59,0,4.22,4.22,0,0,1,3.26,2.32l.18.36A1.08,1.08,0,0,0,13,12.37Z"/></g></g></svg>