<svg id="Layer_1" data-name="Layer 1" xmlns="http://www.w3.org/2000/svg" viewBox="0 0 16 17"><defs></defs><title>user-auth</title><g id="Symbols"><g id="Menu"><path id="Combined-Shape" class="cls-1" d="M8.38,5.85a6,6,0,0,0-3,1.74V0h3V5.85ZM.88,4.25h3V12h-3Zm12,2.17a6.26,6.26,0,0,0-3-.75V2.12h3Z"/><path class="cls-1" d="M6.7,14.34a4.08,4.08,0,0,1,0-6,4.68,4.68,0,0,1,6.36,0,4.07,4.07,0,0,1,.48,5.47l2.17,2-1.06,1-2.16-2A4.7,4.7,0,0,1,6.7,14.34Zm3.18-.17a2.92,2.92,0,0,0,3-2.84,2.92,2.92,0,0,0-3-2.83,2.92,2.92,0,0,0-3,2.83A2.92,2.92,0,0,0,9.88,14.17Z"/></g></g></svg>