<svg width="29" height="29" viewBox="0 0 29 29" fill="none" xmlns="http://www.w3.org/2000/svg">
<path d="M14.5003 0C6.50527 0 0.000976562 6.50535 0.000976562 14.5002C0.000976562 22.4947 6.50527 29 14.5002 29C22.4946 29 28.9994 22.4947 28.9994 14.5002C28.9995 6.50535 22.4947 0 14.5003 0ZM14.5003 26.3086C7.98767 26.3086 2.69038 21.0119 2.69038 14.5002C2.69038 7.98708 7.98767 2.69035 14.5003 2.69035C21.0129 2.69035 26.3101 7.98708 26.3101 14.5002C26.3101 21.0119 21.0123 26.3086 14.5003 26.3086Z" fill="#010002"/>
<path d="M21.155 13.2678H15.7322V7.845C15.7322 7.16429 15.1811 6.61255 14.5004 6.61255C13.8196 6.61255 13.2679 7.16372 13.2679 7.845V13.2677H7.84516C7.16445 13.2677 6.61328 13.8189 6.61328 14.5002C6.61328 15.1809 7.16445 15.7321 7.84516 15.7321H13.2674V21.1554C13.2674 21.8362 13.8191 22.3873 14.4999 22.3873C15.1806 22.3873 15.7323 21.8361 15.7323 21.1554V15.7321H21.1546C21.8354 15.7321 22.3871 15.1809 22.3871 14.5002C22.3874 13.8189 21.8357 13.2678 21.155 13.2678Z" fill="#010002"/>
</svg>
