<svg width="140" height="28" viewBox="0 0 140 28" fill="none" xmlns="http://www.w3.org/2000/svg">
<path fill-rule="evenodd" clip-rule="evenodd" d="M33.0614 14.0314C33.0614 11.2635 30.7807 8.84398 27.8378 8.84398C24.9281 8.84398 22.4814 11.1033 22.4814 13.9361C22.4814 16.7369 24.7296 19.1552 27.7387 19.1552C30.6809 19.1552 33.0614 16.8642 33.0614 14.0314M18.5145 13.9681C18.5145 9.00371 22.7127 5.02561 27.8377 5.02561C32.9291 5.02561 37.029 9.09864 37.029 13.9361C37.029 18.9001 32.9291 22.9743 27.7387 22.9743C22.5808 22.9743 18.5145 18.8685 18.5145 13.9681" fill="#50086E"/>
<path fill-rule="evenodd" clip-rule="evenodd" d="M53.0575 14.0314C53.0575 11.2635 50.7763 8.84398 47.8333 8.84398C44.9244 8.84398 42.4776 11.1033 42.4776 13.9361C42.4776 16.7369 44.7259 19.1552 47.7347 19.1552C50.6765 19.1552 53.0575 16.8642 53.0575 14.0314M38.5103 13.9681C38.5103 9.00371 42.7089 5.02561 47.8332 5.02561C52.9251 5.02561 57.0247 9.09864 57.0247 13.9361C57.0247 18.9001 52.9251 22.9743 47.7346 22.9743C42.5774 22.9743 38.5103 18.8685 38.5103 13.9681" fill="#50086E"/>
<path fill-rule="evenodd" clip-rule="evenodd" d="M79.6121 0C78.5899 0 77.7609 0.88254 77.7609 1.97166C77.7609 1.97166 77.7619 1.97242 77.7619 1.97319H77.7609V21.0023C77.7609 22.0918 78.5899 22.9744 79.6121 22.9744C80.6344 22.9744 81.4638 22.0918 81.4638 21.0023L81.463 21.0008H81.4638V1.97166C81.4638 0.88254 80.6344 0 79.6121 0" fill="#50086E"/>
<path fill-rule="evenodd" clip-rule="evenodd" d="M66.9564 19.0337C64.4709 19.0337 62.4636 17.321 61.8979 15.1351C61.7937 14.7327 61.7332 14.3169 61.7332 13.8903C61.7332 13.4626 61.7941 13.0506 61.8979 12.6535C62.4764 10.4462 64.5611 8.81159 67.0554 8.81159C70.0634 8.81159 72.3124 11.209 72.3124 13.9852C72.3124 16.7931 69.8653 19.0337 66.9564 19.0337M67.0555 5.02561C65.1119 5.02561 63.3223 5.59216 61.8426 6.5581C61.8414 6.55274 61.8386 6.54777 61.8378 6.54241C61.7929 6.36185 61.7188 6.19353 61.6257 6.03554C61.6061 6.0034 61.5905 5.96897 61.5692 5.93684C61.5319 5.88137 61.487 5.82973 61.4437 5.77732C61.4093 5.73677 61.3768 5.69507 61.3391 5.65681C61.2958 5.61244 61.2497 5.57189 61.202 5.53172C61.1555 5.49194 61.1078 5.4533 61.0577 5.41734C61.0108 5.38444 60.9631 5.35307 60.9142 5.32476C60.854 5.28918 60.7919 5.25782 60.7277 5.22798C60.6808 5.20617 60.6331 5.18398 60.5846 5.16486C60.5081 5.13655 60.4283 5.11474 60.3477 5.09485C60.306 5.0849 60.2647 5.07037 60.2218 5.0631C60.0955 5.03976 59.9652 5.02561 59.8313 5.02561C58.69 5.02561 57.7651 5.90853 57.7651 6.99727C57.7651 6.99727 57.7659 6.99841 57.7659 6.9988H57.7651V26.0283C57.7651 27.117 58.69 28 59.8313 28C60.9727 28 61.898 27.117 61.898 26.0283C61.898 26.0283 61.8972 26.0275 61.8972 26.0268H61.898V21.3429C63.3476 22.2709 65.0843 22.8187 66.9564 22.8187C72.0807 22.8187 76.2796 18.875 76.2796 13.9543C76.2796 9.09516 72.2126 5.02561 67.0555 5.02561" fill="#50086E"/>
<path fill-rule="evenodd" clip-rule="evenodd" d="M17.0329 16.9609C17.0329 15.86 16.1281 14.9676 15.0118 14.9676C13.8955 14.9676 12.9906 15.86 12.9906 16.9609L12.9902 18.987H5.55985L15.979 3.96026C16.2626 3.55332 16.4289 3.0609 16.4289 2.5298C16.4289 1.14499 15.3001 0.0216619 13.9006 0.00232092L2.02194 0V0.000386819H2.02116C0.904872 0.000386819 0 0.892779 0 1.99367C0 3.09455 0.924092 3.98733 2.02194 3.98733H11.0675L0.682479 18.9561C0.682479 18.9561 0.189054 19.623 0.189054 20.4449C0.189054 21.8418 1.33711 22.9744 2.75384 22.9744H17.0333L17.0329 16.9609Z" fill="#50086E"/>
<path d="M97.8375 18.5742C97.0251 19.8709 96.0735 20.8947 94.9826 21.6454C93.9149 22.3961 92.8356 22.7715 91.7447 22.7715C90.8627 22.7715 90.0735 22.6123 89.3772 22.2938C88.6809 21.9753 88.0774 21.5317 87.5667 20.9629C87.0561 20.3714 86.6615 19.6662 86.383 18.8472C86.1277 18.0282 86 17.1068 86 16.0831C86 14.4906 86.1509 13.0801 86.4526 11.8516C86.7776 10.6231 87.1257 9.59941 87.4971 8.78042C87.8685 7.93867 88.2166 7.30168 88.5416 6.86944C88.8665 6.43719 89.029 6.22107 89.029 6.22107C89.1451 6.08457 89.2843 5.9822 89.4468 5.91395C89.6325 5.8457 89.8182 5.81157 90.0039 5.81157C90.3752 5.81157 90.677 5.94807 90.9091 6.22107C91.1644 6.47132 91.2921 6.76706 91.2921 7.10831C91.2921 7.24481 91.2573 7.38131 91.1876 7.5178C91.1412 7.6543 91.0832 7.7908 91.0135 7.9273C90.8975 8.13205 90.7118 8.45054 90.4565 8.88279C90.2012 9.29229 89.9342 9.83828 89.6557 10.5208C89.3772 11.2033 89.1335 12.0109 88.9246 12.9436C88.7157 13.8536 88.6112 14.9001 88.6112 16.0831C88.6112 17.4253 88.8781 18.4491 89.412 19.1543C89.9691 19.8368 90.7466 20.178 91.7447 20.178C92.1625 20.178 92.6383 20.0529 93.1721 19.8027C93.7292 19.5297 94.2631 19.1202 94.7737 18.5742C95.3075 18.0282 95.7718 17.3343 96.1663 16.4926C96.5609 15.6508 96.8162 14.6612 96.9323 13.5237L97.4545 7.6543C97.501 7.31306 97.6518 7.02868 97.9072 6.80119C98.1625 6.57369 98.4642 6.45994 98.8124 6.45994C99.207 6.45994 99.5203 6.60781 99.7524 6.90356C99.9845 7.17656 100.101 7.49505 100.101 7.85905L99.648 13.5237C99.6015 14.0015 99.6132 14.6271 99.6828 15.4006C99.7756 16.1741 99.9497 16.9362 100.205 17.6869C100.46 18.4377 100.843 19.0861 101.354 19.632C101.865 20.1553 102.538 20.4169 103.373 20.4169C103.977 20.4169 104.569 20.269 105.149 19.9733C105.729 19.6548 106.286 19.2453 106.82 18.7448C107.354 18.2443 107.841 17.6869 108.282 17.0727C108.747 16.4357 109.164 15.7987 109.536 15.1617C109.93 14.5247 110.267 13.9219 110.545 13.3531C110.824 12.7616 111.056 12.2611 111.242 11.8516C111.358 11.6014 111.52 11.408 111.729 11.2715C111.938 11.135 112.17 11.0668 112.426 11.0668C112.843 11.0668 113.168 11.2033 113.4 11.4763C113.632 11.7493 113.749 12.045 113.749 12.3635C113.749 12.5455 113.714 12.7161 113.644 12.8754C113.551 13.0574 113.366 13.4441 113.087 14.0356C112.832 14.6044 112.484 15.2641 112.043 16.0148C111.625 16.7428 111.114 17.5163 110.511 18.3353C109.907 19.1543 109.234 19.9164 108.491 20.6217C107.749 21.3042 106.936 21.8729 106.054 22.3279C105.195 22.7601 104.267 22.9763 103.269 22.9763C101.899 22.9763 100.762 22.6009 99.8569 21.8501C98.9516 21.0767 98.2785 19.9847 97.8375 18.5742Z" fill="#FF7C7C"/>
<path d="M132.027 3.0816C128.453 7.40406 125.191 11.954 122.244 16.7315C123.056 17.9144 123.95 18.8927 124.925 19.6662C125.899 20.4397 127.002 20.8264 128.232 20.8264C129.323 20.8264 130.356 20.5193 131.331 19.905C132.306 19.2908 133.188 18.5401 133.977 17.6528C134.789 16.7428 135.485 15.776 136.066 14.7522C136.669 13.7057 137.133 12.7616 137.458 11.9199C137.691 11.3511 138.097 11.0668 138.677 11.0668C139.072 11.0668 139.385 11.2033 139.617 11.4763C139.872 11.7265 140 12.0223 140 12.3635C140 12.4773 139.977 12.6251 139.93 12.8071C139.954 12.7616 139.849 12.9891 139.617 13.4896C139.385 13.9901 139.037 14.6385 138.573 15.4347C138.108 16.2082 137.54 17.0613 136.867 17.9941C136.193 18.9268 135.416 19.8027 134.534 20.6217C133.675 21.4179 132.712 22.0776 131.644 22.6009C130.576 23.1469 129.427 23.4199 128.197 23.4199C126.665 23.4199 125.284 23.0218 124.054 22.2255C122.847 21.4293 121.756 20.4169 120.781 19.1884C120.387 19.8709 120.004 20.5534 119.632 21.2359C119.261 21.9184 118.89 22.6009 118.518 23.2834C118.263 23.7611 117.868 24 117.335 24C116.94 24 116.615 23.8635 116.36 23.5905C116.128 23.3175 116.012 23.0218 116.012 22.7033C116.012 22.5213 116.07 22.3165 116.186 22.089C116.65 21.2018 117.126 20.3145 117.613 19.4273C118.101 18.5401 118.611 17.6642 119.145 16.7997C118.356 15.4575 117.683 14.0925 117.126 12.7047C116.569 11.2943 116.128 9.97478 115.803 8.74629L113.749 12.9095C113.493 13.41 113.099 13.6602 112.565 13.6602C112.17 13.6602 111.845 13.5237 111.59 13.2507C111.358 12.9777 111.242 12.682 111.242 12.3635C111.242 12.1588 111.288 11.9768 111.381 11.8175L115.176 4.03709C115.292 3.83234 115.455 3.66172 115.663 3.52522C115.872 3.38872 116.104 3.32047 116.36 3.32047C116.731 3.32047 117.033 3.4456 117.265 3.69585C117.497 3.92334 117.636 4.20772 117.683 4.54896C117.706 4.86746 117.787 5.36795 117.926 6.05045C118.089 6.73294 118.298 7.5178 118.553 8.40504C118.832 9.26954 119.145 10.2023 119.493 11.2033C119.865 12.2043 120.294 13.1939 120.781 14.1721C123.567 9.73591 126.642 5.49308 130.008 1.44362C130.24 1.14787 130.576 1 131.017 1C131.389 1 131.702 1.12512 131.957 1.37537C132.213 1.62562 132.34 1.92137 132.34 2.26261C132.34 2.58111 132.236 2.8541 132.027 3.0816Z" fill="#FF7C7C"/>
</svg>
